# xmcd
#
# Track frame offsets: 
#        150
#        27769
#        52419
#        74545
#        101557
#        133003
#        158013
#        185628
#        210679
#        242229
#
# Disc length: 3592 seconds
#
# Revision: 0
# Processed by: cddbd v1.5.2PL0 Copyright (c) Steve Scherf et al.
# Submitted via: ExactAudioCopy v1.0b3
#
DISCID=950e060a
DTITLE=Truong Hai, Giao Linh - Nhung Chuyen Tinh Ngang Trai
DYEAR=1996
DGENRE=
TTITLE0=Truong Hai - Luong Son Ba Chuc Anh Dai 1
TTITLE1=Truong Hai - Luong Son Ba Chuc Anh Dai 2
TTITLE2=Giao Linh - Loi the cua loai hoa trang
TTITLE3=Truong Hai - Giong ca di vang
TTITLE4=Truong Hai - Han tinh Co Loa
TTITLE5=Nguoi con do ta con day
TTITLE6=Truong Hai - Tinh su Huyen Tran
TTITLE7=Truong Hai - Buon ga nho
TTITLE8=Giao Linh - Chuyen nguoi ngam ngai tim tram
TTITLE9=Truong Hai - Chuyen tinh nguoi trinh nu ten Thi
EXTD=
EXTT0=
EXTT1=
EXTT2=
EXTT3=
EXTT4=
EXTT5=
EXTT6=
EXTT7=
EXTT8=
EXTT9=
PLAYORDER=
